<svg width="64" height="64" viewBox="0 0 64 64" fill="none" xmlns="http://www.w3.org/2000/svg">
<circle cx="32" cy="32" r="31.5" stroke="white"/>
<path d="M42.4495 32.5895L27.4342 42.5996C27.3276 42.6706 27.2037 42.7113 27.0757 42.7174C26.9477 42.7236 26.8205 42.6949 26.7075 42.6344C26.5945 42.5739 26.5001 42.4839 26.4342 42.374C26.3684 42.2641 26.3336 42.1384 26.3335 42.0103V21.99C26.3336 21.8618 26.3684 21.7361 26.4342 21.6262C26.5001 21.5163 26.5945 21.4263 26.7075 21.3659C26.8205 21.3054 26.9477 21.2767 27.0757 21.2828C27.2037 21.2889 27.3276 21.3296 27.4342 21.4006L42.4495 31.4108C42.5465 31.4755 42.626 31.5631 42.6811 31.6659C42.7361 31.7687 42.7649 31.8835 42.7649 32.0001C42.7649 32.1167 42.7361 32.2315 42.6811 32.3343C42.626 32.4371 42.5465 32.5248 42.4495 32.5895Z" fill="white"/>
</svg>
